<svg xmlns="http://www.w3.org/2000/svg" aria-hidden="true" style="position:absolute;width:0;height:0;overflow:hidden">
  <defs>
    <symbol id="ai2" viewBox="0 0 32 32">
      <path fill="#6f00ff" d="M21.024 15.763a6.097 6.097 0 0 1-7.864 1.947 6.093 6.093 0 0 1-2.184-1.947 8.685 8.685 0 0 0-3.693 7.117v7.123h17.434V22.88a8.677 8.677 0 0 0-3.693-7.117z" style="fill:var(--color1, #6f00ff)"/>
      <path fill="#d15187" d="M21.024 15.763a6.085 6.085 0 0 0-1.881-8.648 6.087 6.087 0 0 0-8.167 8.648 8.687 8.687 0 0 1 10.048 0z" style="fill:var(--color2, #d15187)"/>
      <path fill="#a445bb" d="M16 18.413a6.082 6.082 0 0 0 5.024-2.65 8.687 8.687 0 0 0-10.048 0A6.093 6.093 0 0 0 16 18.413z" style="fill:var(--color3, #a445bb)"/>
      <path fill="#6f2cff" d="m4.96 12.026 2.618.294-2.618.301v-.595zM16.294 1.286 16 3.897l-.294-2.611h.589zM27.04 12.621l-2.618-.301 2.618-.294v.595z" style="fill:var(--color4, #6f2cff)"/>
    </symbol>
    <symbol id="ai3" viewBox="0 0 32 32">
      <path fill="#6f00ff" d="m21.12 16.685 2.496 2.515a.69.69 0 0 0 .75.15.701.701 0 0 0 .223-.15l1.766-1.766V8.32a.688.688 0 0 0-.82-.676.69.69 0 0 0-.352.189l-6.963 6.982a.69.69 0 0 1-.75.15.69.69 0 0 1-.223-.15l-4.051-4.051a.69.69 0 0 0-.75-.15.69.69 0 0 0-.223.15L2.149 20.921a.692.692 0 0 0-.144.744.68.68 0 0 0 .629.42h12.16l5.357-5.402a.684.684 0 0 1 .966 0z" style="fill:var(--color1, #6f00ff)"/>
      <path fill="#d15187" d="m28.877 14.886-2.522 2.528v3.981a.689.689 0 0 1-.685.685H14.79l-1.082 1.094a.69.69 0 0 0 .104 1.057.685.685 0 0 0 .383.114h15.168a.692.692 0 0 0 .498-.182.69.69 0 0 0 .219-.484v-8.32a.679.679 0 0 0-.434-.664.686.686 0 0 0-.77.19z" style="fill:var(--color2, #d15187)"/>
      <path fill="#a445bb" d="M26.355 21.395v-3.981L24.589 19.2a.69.69 0 0 1-.751.15.69.69 0 0 1-.223-.15l-2.496-2.515a.69.69 0 0 0-.751-.15.69.69 0 0 0-.223.15l-5.357 5.402h10.88a.688.688 0 0 0 .685-.691z" style="fill:var(--color3, #a445bb)"/>
    </symbol>
    <symbol id="doing1" viewBox="0 0 32 32">
      <path fill="#6f00ff" d="m20.736 15.45 2.406-2.413-6.451-6.451A.962.962 0 0 0 16 6.298c-.129 0-.256.025-.374.075s-.226.122-.317.213l-6.451 6.451 2.406 2.413a.784.784 0 0 1 .23.55.763.763 0 0 1-.23.55l-2.406 2.413 6.451 6.451a.962.962 0 0 0 .691.288.96.96 0 0 0 .691-.288l6.451-6.451-2.406-2.413a.768.768 0 0 1-.17-.848.784.784 0 0 1 .17-.252z" style="fill:var(--color1, #6f00ff)"/>
      <path fill="#d15187" d="m30.605 15.45-4.365-4.384a.768.768 0 0 0-.848-.17.784.784 0 0 0-.252.17l-1.978 1.971 2.272 2.272a.962.962 0 0 1 .288.691.96.96 0 0 1-.288.691l-2.272 2.272 1.978 1.971a.768.768 0 0 0 .848.17.784.784 0 0 0 .252-.17l4.384-4.384a.786.786 0 0 0-.019-1.1z" style="fill:var(--color2, #d15187)"/>
      <path fill="#a445bb" d="m25.414 15.309-2.272-2.272-2.406 2.413a.768.768 0 0 0-.17.848c.04.094.097.18.17.252l2.406 2.413 2.272-2.272a.962.962 0 0 0 .288-.691c0-.129-.025-.256-.075-.374a1 1 0 0 0-.213-.317z" style="fill:var(--color3, #a445bb)"/>
      <path fill="#d15187" d="m6.586 15.309 2.272-2.272-1.978-1.971a.768.768 0 0 0-.848-.17.784.784 0 0 0-.252.17L1.396 15.45a.786.786 0 0 0 0 1.1l4.365 4.384a.768.768 0 0 0 .848.17.784.784 0 0 0 .252-.17l1.978-1.971-2.272-2.272a.974.974 0 0 1 .019-1.383z" style="fill:var(--color2, #d15187)"/>
      <path fill="#a445bb" d="m11.264 15.45-2.406-2.413-2.272 2.272a.962.962 0 0 0-.288.691c0 .129.025.256.075.374s.122.226.213.317l2.272 2.272 2.406-2.413a.784.784 0 0 0 .23-.55.763.763 0 0 0-.23-.55z" style="fill:var(--color3, #a445bb)"/>
    </symbol>
    <symbol id="doing2" viewBox="0 0 32 32">
      <path fill="#6f2cff" d="M19.494 8.749h-12a1.078 1.078 0 0 0-1.01.659 1.08 1.08 0 0 0-.084.416v15.187a1.072 1.072 0 0 0 1.069 1.075h15.213a1.072 1.072 0 0 0 1.075-1.075v-12a4.264 4.264 0 0 1-4.262-4.262z" style="fill:var(--color4, #6f2cff)"/>
      <path fill="#d15187" d="M23.757 4.48a4.264 4.264 0 0 0-4.262 4.262h3.2a1.078 1.078 0 0 1 1.075 1.075v3.2a4.271 4.271 0 0 0 4.263-4.275 4.271 4.271 0 0 0-4.275-4.263z" style="fill:var(--color2, #d15187)"/>
      <path fill="#a445bb" d="M22.682 8.749h-3.2a4.264 4.264 0 0 0 4.262 4.262v-3.2a1.073 1.073 0 0 0-1.063-1.063z" style="fill:var(--color3, #a445bb)"/>
    </symbol>
    <symbol id="doing3" viewBox="0 0 32 32">
      <path fill="#a445bb" d="M16 10.24a3.821 3.821 0 1 0 0-7.643 3.821 3.821 0 0 0 0 7.643z" style="fill:var(--color3, #a445bb)"/>
      <path fill="#6f2cff" d="M7.706 15.034a3.821 3.821 0 1 0 0-7.643 3.821 3.821 0 0 0 0 7.643z" style="fill:var(--color4, #6f2cff)"/>
      <path fill="#a445bb" d="M7.706 24.608a3.821 3.821 0 1 0 0-7.643 3.821 3.821 0 0 0 0 7.643z" style="fill:var(--color3, #a445bb)"/>
      <path fill="#6f2cff" d="M16 29.402a3.821 3.821 0 1 0 0-7.643 3.821 3.821 0 0 0 0 7.643z" style="fill:var(--color4, #6f2cff)"/>
      <path fill="#a445bb" d="M24.294 24.608a3.821 3.821 0 1 0 0-7.643 3.821 3.821 0 0 0 0 7.643z" style="fill:var(--color3, #a445bb)"/>
      <path fill="#6f2cff" d="M24.294 15.034a3.821 3.821 0 1 0 0-7.643 3.821 3.821 0 0 0 0 7.643z" style="fill:var(--color4, #6f2cff)"/>
      <path fill="#d15187" d="M16 18.502a2.502 2.502 0 1 0 0-5.004 2.502 2.502 0 0 0 0 5.004z" style="fill:var(--color2, #d15187)"/>
    </symbol>
    <symbol id="ai1" viewBox="0 0 32 32">
      <path fill="#a445bb" d="M8.998 14.509a6.023 6.023 0 0 0 .71 2.842 7.433 7.433 0 0 0 7.091-7.418 7.634 7.634 0 0 0-.115-1.28 6.058 6.058 0 0 0-7.055 3.153 6.05 6.05 0 0 0-.625 2.697l-.006.006z" style="fill:var(--color3, #a445bb)"/>
      <path fill="#d15187" d="M15.072 5.76h.429a7.415 7.415 0 0 0-5.844-3.221 7.435 7.435 0 0 0-6.07 2.772 7.429 7.429 0 0 0-1.393 6.526 7.423 7.423 0 0 0 4.409 5.008 8.931 8.931 0 0 1-.314-2.317A8.792 8.792 0 0 1 15.07 5.76z" style="fill:var(--color2, #d15187)"/>
      <path fill="#6f00ff" d="M15.501 5.76h-.429a8.793 8.793 0 0 0-8.781 8.749c.002.783.108 1.562.314 2.317a8.763 8.763 0 0 0 13.632 4.761l7.68 7.68a.794.794 0 0 0 1.12 0l.794-.794a.794.794 0 0 0 0-1.12l-7.68-7.68a8.759 8.759 0 0 0 .826-8.94 8.762 8.762 0 0 0-7.475-4.973zm-.429 14.842a6.069 6.069 0 0 1-5.363-3.2 6.017 6.017 0 0 1-.71-2.842 6.05 6.05 0 0 1 4.914-5.964 6.044 6.044 0 0 1 2.766.114 6.071 6.071 0 0 1 4.426 6.669 6.068 6.068 0 0 1-6.039 5.254l.006-.032z" style="fill:var(--color1, #6f00ff)"/>
    </symbol>
    <symbol id="doing5" viewBox="0 0 32 32">
      <path fill="#6f2cff" d="M23.757 6.97H8.243c-.703 0-1.274.57-1.274 1.274v15.514c0 .703.57 1.274 1.274 1.274h15.514c.703 0 1.274-.57 1.274-1.274V8.244c0-.703-.57-1.274-1.274-1.274z" style="fill:var(--color4, #6f2cff)"/>
      <path fill="none" stroke="#6f2cff" stroke-linecap="round" stroke-miterlimit="10" stroke-width="1.779" d="M25.03 16h2.566M25.03 20.198h2.566M25.03 11.802h2.566M4.403 16h2.566M4.403 20.198h2.566M4.403 11.802h2.566M16 6.97V4.404M19.942 6.97V4.404M12.058 6.97V4.404M16 27.597v-2.566M19.942 27.597v-2.566M12.058 27.597v-2.566" style="stroke:var(--color4, #6f2cff)"/>
      <path fill="#d15187" d="M17.203 14.79H14.79v2.413h2.413V14.79zM21.146 14.79h-2.413v2.413h2.413V14.79zM13.261 14.79h-2.413v2.413h2.413V14.79zM17.203 10.598H14.79v2.413h2.413v-2.413zM21.146 10.598h-2.413v2.413h2.413v-2.413zM13.261 10.598h-2.413v2.413h2.413v-2.413zM17.203 18.989H14.79v2.413h2.413v-2.413zM21.146 18.989h-2.413v2.413h2.413v-2.413zM13.261 18.989h-2.413v2.413h2.413v-2.413z" style="fill:var(--color2, #d15187)"/>
    </symbol>
    <symbol id="doing6" viewBox="0 0 32 32">
      <path fill="#6f2cff" d="m16.787 8.851 9.69 5.12 1.043-.531a1.685 1.685 0 0 0 .895-1.492 1.69 1.69 0 0 0-.895-1.492L16.787 4.805a1.71 1.71 0 0 0-1.574 0L4.512 10.463a1.685 1.685 0 0 0-.895 1.492 1.69 1.69 0 0 0 .895 1.492l1.011.531 9.69-5.12a1.71 1.71 0 0 1 1.574-.006zM15.213 23.149l-9.69-5.12-1.011.531a1.685 1.685 0 0 0-.895 1.492 1.69 1.69 0 0 0 .895 1.492l10.701 5.658a1.71 1.71 0 0 0 1.574 0l10.733-5.664a1.694 1.694 0 0 0 .889-1.488 1.696 1.696 0 0 0-.889-1.488l-1.011-.531-9.69 5.12a1.704 1.704 0 0 1-1.606 0z" style="fill:var(--color4, #6f2cff)"/>
      <path fill="#d15187" d="m27.52 14.509-1.011-.531L22.669 16l-5.862 3.098a1.676 1.676 0 0 1-1.574 0l-9.722-5.12-1.011.531a1.685 1.685 0 0 0-.895 1.492 1.69 1.69 0 0 0 .895 1.492l1.011.531 9.69 5.12a1.71 1.71 0 0 0 1.574 0l9.69-5.12 1.056-.531a1.685 1.685 0 0 0 .895-1.492 1.69 1.69 0 0 0-.895-1.492z" style="fill:var(--color2, #d15187)"/>
      <path fill="#a445bb" d="M16.787 8.851a1.71 1.71 0 0 0-1.574 0l-9.69 5.12 3.84 2.022 5.862 3.098a1.676 1.676 0 0 0 1.574 0l9.69-5.114-9.702-5.126z" style="fill:var(--color3, #a445bb)"/>
    </symbol>
    <symbol id="spec1" viewBox="0 0 32 32">
      <path fill="#6f2cff" d="M16 27.379c.032-1.613.378-7.085 3.622-11.52.16-.224.326-.435.493-.64C19.795 9.024 16 4.147 16 4.147s-3.795 4.877-4.115 11.046c.166.205.333.416.493.64C15.623 20.294 16 25.766 16 27.379z" style="fill:var(--color4, #6f2cff)"/>
      <path fill="#d15187" d="M11.885 15.193c-3.878-4.806-9.818-6.522-9.818-6.522s-.23 6.726 3.616 12.026C9.529 25.996 16 27.852 16 27.852s-4.134-5.306-4.134-11.853c0-.269.006-.538.019-.806z" style="fill:var(--color2, #d15187)"/>
      <path fill="#a445bb" d="M16 27.379c-.032-1.613-.378-7.085-3.622-11.52-.16-.224-.326-.435-.493-.64v.806C11.866 22.547 16 27.852 16 27.852v-.474z" style="fill:var(--color3, #a445bb)"/>
      <path fill="#d15187" d="M29.933 8.672s-5.939 1.715-9.818 6.522V16C20.134 22.547 16 27.853 16 27.853s6.464-1.862 10.317-7.155c3.853-5.293 3.616-12.026 3.616-12.026z" style="fill:var(--color2, #d15187)"/>
      <path fill="#a445bb" d="M20.115 15.194c-.166.205-.333.416-.493.64-3.245 4.48-3.59 9.933-3.622 11.52v.474s4.134-5.28 4.134-11.827c0-.269-.006-.538-.019-.806z" style="fill:var(--color3, #a445bb)"/>
    </symbol>
    <symbol id="spec2" viewBox="0 0 32 32">
      <path fill="#6f2cff" d="M16 29.709c7.571 0 13.709-6.138 13.709-13.709S23.571 2.291 16 2.291 2.291 8.429 2.291 16 8.429 29.709 16 29.709z" style="fill:var(--color4, #6f2cff)"/>
      <path fill="#d15187" d="M13.146 15.098a1.952 1.952 0 1 0 0-3.904 1.952 1.952 0 0 0 0 3.904zM18.854 15.098a1.952 1.952 0 1 0 0-3.904 1.952 1.952 0 0 0 0 3.904zM13.146 20.807a1.952 1.952 0 1 0 0-3.904 1.952 1.952 0 0 0 0 3.904zM18.854 20.807a1.952 1.952 0 1 0 0-3.904 1.952 1.952 0 0 0 0 3.904z" style="fill:var(--color2, #d15187)"/>
    </symbol>
    <symbol id="spec3" viewBox="0 0 32 32">
      <path fill="none" stroke="#6f2cff" stroke-miterlimit="10" stroke-width="1.37" d="M16 2.291a5.709 5.709 0 0 0-5.696 6.029l.32 5.389h10.752l.32-5.389A5.71 5.71 0 0 0 16 2.291z" style="stroke:var(--color4, #6f2cff)"/>
      <path fill="#6f2cff" d="M26.65 29.709H5.351a1.066 1.066 0 0 1-1.005-.69 1.074 1.074 0 0 1-.071-.423l.589-14.669a1.073 1.073 0 0 1 1.075-1.024h20.122a1.077 1.077 0 0 1 1.075 1.024l.589 14.669a1.074 1.074 0 0 1-1.076 1.113z" style="fill:var(--color4, #6f2cff)"/>
      <path fill="#d15187" d="m27.136 13.927.064 1.664h-2.125v2.688H6.925v-2.688H4.8l.064-1.664a1.073 1.073 0 0 1 1.075-1.024h20.122a1.077 1.077 0 0 1 1.075 1.024z" style="fill:var(--color2, #d15187)"/>
      <path fill="#a445bb" d="M25.082 18.278H6.925v3.36h18.157v-3.36z" style="fill:var(--color3, #a445bb)"/>
      <path fill="#d15187" d="M17.683 21.638a1.68 1.68 0 0 1-1.035 1.56 1.687 1.687 0 0 1-2.299-1.223 1.68 1.68 0 0 1 .715-1.729 1.686 1.686 0 0 1 2.124.207c.316.314.494.741.495 1.186z" style="fill:var(--color2, #d15187)"/>
    </symbol>
    <symbol id="spec4" viewBox="0 0 32 32">
      <path fill="#d15187" d="M26.182 19.347a1.868 1.868 0 0 0 1.868-1.868 1.806 1.806 0 0 0-.083-.531l-3.565 1.069a1.858 1.858 0 0 0 1.779 1.331z" style="fill:var(--color2, #d15187)"/>
      <path fill="#a445bb" d="M26.182 15.61a1.866 1.866 0 0 0-1.862 1.869c.004.183.034.364.09.538l3.565-1.069a1.872 1.872 0 0 0-1.792-1.337z" style="fill:var(--color3, #a445bb)"/>
      <path fill="#d15187" d="M3.949 17.478a1.864 1.864 0 0 0 1.594 1.845 1.867 1.867 0 0 0 2.054-1.314l-3.565-1.062a1.806 1.806 0 0 0-.083.531z" style="fill:var(--color2, #d15187)"/>
      <path fill="#a445bb" d="M5.818 15.61a1.864 1.864 0 0 0-1.785 1.337l3.565 1.062c.056-.172.086-.351.09-.531A1.869 1.869 0 0 0 5.82 15.61zM16 22.573a5.658 5.658 0 1 0 0-11.316 5.658 5.658 0 0 0 0 11.316z" style="fill:var(--color3, #a445bb)"/>
      <path fill="#6f2cff" d="M31.283 14.649H21.184a5.662 5.662 0 0 0-4.621-3.367v-3.84a.556.556 0 0 0-.338-.515.55.55 0 0 0-.762.515v3.84a5.651 5.651 0 0 0-4.621 3.367H.717a.56.56 0 0 0-.557.557v.154a.566.566 0 0 0 .397.538l3.475 1.05a1.863 1.863 0 0 1 3.655.531c-.003.181-.033.36-.09.531l3.13.941v-.134c.819 1.798 2.867 2.624 5.267 2.624s4.48-.832 5.274-2.637v.147l3.123-.934a1.962 1.962 0 0 1-.09-.538 1.86 1.86 0 0 1 1.595-1.868 1.86 1.86 0 0 1 2.06 1.337l3.475-1.043a.568.568 0 0 0 .397-.538v-.16a.556.556 0 0 0-.544-.557z" style="fill:var(--color4, #6f2cff)"/>
      <path fill="#fff" d="M19.392 14.086v.563L16 15.782l-3.392-1.133v-.563h6.784z" style="fill:var(--color5, #fff)"/>
    </symbol>
    <symbol id="spec5" viewBox="0 0 32 32">
      <path fill="#d15187" d="M25.779 16.448c-1.158 3.322-4.41 6.995-7.04 9.6a29.643 29.643 0 0 0 2.739 2.752 1.097 1.097 0 0 0 1.46 0c1.594-1.414 5.261-4.941 5.261-7.533a5.987 5.987 0 0 0-2.419-4.82z" style="fill:var(--color2, #d15187)"/>
      <path fill="#a445bb" d="M25.779 16.448a5.979 5.979 0 0 0-6.262-.551 5.986 5.986 0 0 0-3.299 5.351c0 1.478 1.197 3.264 2.522 4.787 2.63-2.592 5.882-6.266 7.04-9.587z" style="fill:var(--color3, #a445bb)"/>
      <path fill="#6f2cff" d="M15.014 2.931A11.207 11.207 0 0 0 3.8 14.144c0 5.235 8.019 12.531 10.49 14.656a1.101 1.101 0 0 0 1.44 0 63.644 63.644 0 0 0 3.008-2.765c-1.325-1.523-2.522-3.309-2.522-4.787a5.986 5.986 0 0 1 1.536-3.968 3.977 3.977 0 0 1-2.739 1.101 4.067 4.067 0 0 1-4.026-3.173 4.07 4.07 0 1 1 7.022 1.797 5.967 5.967 0 0 1 7.769-.532 6.984 6.984 0 0 0 .461-2.33A11.205 11.205 0 0 0 15.013 2.93z" style="fill:var(--color4, #6f2cff)"/>
    </symbol>
    <symbol id="spec6" viewBox="0 0 32 32">
      <path fill="#d15187" d="M29.805 5.792 16.672 1.715a1.349 1.349 0 0 0-1.037.095 1.364 1.364 0 0 0-.665.802l-3.104 9.971 4.115-.64a1.364 1.364 0 0 1 1.556 1.14l1.024 6.464 6.4 1.984a1.374 1.374 0 0 0 1.04-.093 1.355 1.355 0 0 0 .668-.803L30.72 7.502a1.355 1.355 0 0 0-.916-1.708z" style="fill:var(--color2, #d15187)"/>
      <path fill="#6f2cff" d="m10.88 15.744.979-3.162-9.472 1.498a1.371 1.371 0 0 0-1.107 1.523l2.067 13.594a1.366 1.366 0 0 0 1.556 1.133l13.594-2.093a1.364 1.364 0 0 0 1.139-1.556l-1.075-7.136-6.778-2.099a1.356 1.356 0 0 1-.902-1.702z" style="fill:var(--color4, #6f2cff)"/>
      <path fill="#a445bb" d="m16 11.949-4.115.64-1.005 3.155a1.349 1.349 0 0 0 .095 1.037 1.348 1.348 0 0 0 .802.664l6.784 2.099-1.024-6.458a1.36 1.36 0 0 0-1.536-1.139z" style="fill:var(--color3, #a445bb)"/>
      <path fill="#fff" d="M20.787 13.114a1.376 1.376 0 1 0 0-2.752 1.376 1.376 0 0 0 0 2.752zM18.074 7.962a1.376 1.376 0 1 0 0-2.752 1.376 1.376 0 0 0 0 2.752zM25.939 10.406a1.376 1.376 0 1 0 0-2.752 1.376 1.376 0 0 0 0 2.752zM15.629 15.827a1.376 1.376 0 1 0 0-2.752 1.376 1.376 0 0 0 0 2.752zM23.494 18.272a1.376 1.376 0 1 0 0-2.752 1.376 1.376 0 0 0 0 2.752zM10.49 22.63a1.376 1.376 0 1 0 0-2.752 1.376 1.376 0 0 0 0 2.752zM5.786 19.187a1.376 1.376 0 1 0 0-2.752 1.376 1.376 0 0 0 0 2.752zM15.187 26.067a1.376 1.376 0 1 0 0-2.752 1.376 1.376 0 0 0 0 2.752z" style="fill:var(--color5, #fff)"/>
    </symbol>
    <symbol id="doing4" viewBox="0 0 32 32">
      <path fill="#a445bb" d="M8.998 14.509a6.023 6.023 0 0 0 .71 2.842 7.433 7.433 0 0 0 7.091-7.418 7.634 7.634 0 0 0-.115-1.28 6.058 6.058 0 0 0-7.055 3.153 6.05 6.05 0 0 0-.625 2.697l-.006.006z" style="fill:var(--color3, #a445bb)"/>
      <path fill="#d15187" d="M15.072 5.76h.429a7.415 7.415 0 0 0-5.844-3.221 7.435 7.435 0 0 0-6.07 2.772 7.429 7.429 0 0 0-1.393 6.526 7.423 7.423 0 0 0 4.409 5.008 8.931 8.931 0 0 1-.314-2.317A8.794 8.794 0 0 1 15.07 5.76z" style="fill:var(--color2, #d15187)"/>
      <path fill="#6f00ff" d="M15.501 5.76h-.429a8.793 8.793 0 0 0-8.781 8.749c.002.783.108 1.562.314 2.317a8.763 8.763 0 0 0 13.632 4.761l7.68 7.68a.794.794 0 0 0 1.12 0l.794-.794a.794.794 0 0 0 0-1.12l-7.68-7.68a8.759 8.759 0 0 0 .826-8.94 8.762 8.762 0 0 0-7.475-4.973zm-.429 14.842a6.069 6.069 0 0 1-5.363-3.2 6.017 6.017 0 0 1-.71-2.842 6.05 6.05 0 0 1 4.914-5.964 6.044 6.044 0 0 1 2.766.114 6.071 6.071 0 0 1 4.426 6.669 6.068 6.068 0 0 1-6.039 5.254l.006-.032z" style="fill:var(--color1, #6f00ff)"/>
    </symbol>
  </defs>
</svg>
